<?xml version="1.0" encoding="UTF-8" standalone="no"?>
<svg
   xmlns:dc="http://purl.org/dc/elements/1.1/"
   xmlns:cc="http://creativecommons.org/ns#"
   xmlns:rdf="http://www.w3.org/1999/02/22-rdf-syntax-ns#"
   xmlns:svg="http://www.w3.org/2000/svg"
   xmlns="http://www.w3.org/2000/svg"
   xmlns:sodipodi="http://sodipodi.sourceforge.net/DTD/sodipodi-0.dtd"
   xmlns:inkscape="http://www.inkscape.org/namespaces/inkscape"
   clip-rule="evenodd"
   fill-rule="evenodd"
   stroke-linejoin="round"
   stroke-miterlimit="1.4142"
   version="1.1"
   viewBox="0 0 1344 1344"
   xml:space="preserve"
   id="svg1008"
   sodipodi:docname="foreground_no_border.svg"
   inkscape:version="1.0.2 (e86c870879, 2021-01-15)"
   inkscape:export-filename="/home/svidenov/repos/github/yaga/assets/icon/foreground.png"
   inkscape:export-xdpi="96"
   inkscape:export-ydpi="96"><metadata
   id="metadata1012"><rdf:RDF><cc:Work
       rdf:about=""><dc:format>image/svg+xml</dc:format><dc:type
         rdf:resource="http://purl.org/dc/dcmitype/StillImage" /><dc:title></dc:title></cc:Work></rdf:RDF></metadata><sodipodi:namedview
   pagecolor="#ffffff"
   bordercolor="#666666"
   borderopacity="1"
   objecttolerance="10"
   gridtolerance="10"
   guidetolerance="10"
   inkscape:pageopacity="0"
   inkscape:pageshadow="2"
   inkscape:window-width="1920"
   inkscape:window-height="1135"
   id="namedview1010"
   showgrid="false"
   inkscape:zoom="0.48660714"
   inkscape:cx="434.07768"
   inkscape:cy="684.87684"
   inkscape:window-x="1920"
   inkscape:window-y="0"
   inkscape:window-maximized="1"
   inkscape:current-layer="svg1008"
   inkscape:document-rotation="0" /><defs
   id="defs1004"><linearGradient
     id="a"
     x1="18.23"
     x2="150"
     y1="150"
     y2="-7.6294e-6"
     gradientTransform="matrix(8.96 0 0 8.96 -7.8457e-5 .00019795)"
     gradientUnits="userSpaceOnUse"><stop
       stop-color="#0082c9"
       offset="0"
       id="stop999" /><stop
       stop-color="#1cafff"
       offset="1"
       id="stop1001" /></linearGradient></defs>
<rect
   y="0.00012207"
   width="1344"
   height="1344"
   fill="url(#a)"
   fill-rule="evenodd"
   id="rect1006"
   x="0"
   ry="0"
   style="fill:none" /><path
   fill="#ffffff"
   d="M 33.005773,96 C 14.045853,99.671947 -0.33486709,118.40627 0.00593291,137.99979 V 1205.9954 c 0,22.08 20.35189309,42.0478 41.99981409,42.0478 H 1302.0002 c 21.6526,-4e-4 41.9987,-20.0122 41.9998,-41.9999 V 154.55971 C 1343.952,122.25107 1318.608,95.8608 1294.5123,96.048 Z m 62.994934,95.9948 1151.994993,4.8e-4 V 671.99323 L 1151.996,575.99368 863.99736,959.99192 575.99861,671.99323 192.00031,1055.9916 H 96.000707 Z m 240.008573,95.99955 c -79.53087,0 -143.99937,64.46856 -143.99937,143.99944 0,79.53085 64.4685,143.99936 143.99937,143.99936 79.5308,0 143.99941,-64.46851 143.99941,-143.99936 0,-79.53088 -64.46861,-143.99944 -143.99941,-143.99944 z"
   id="path1022"
   style="stroke-width:48" /></svg>
