<?xml version="1.0" encoding="UTF-8" standalone="no"?>
<svg
   xmlns:dc="http://purl.org/dc/elements/1.1/"
   xmlns:cc="http://creativecommons.org/ns#"
   xmlns:rdf="http://www.w3.org/1999/02/22-rdf-syntax-ns#"
   xmlns:svg="http://www.w3.org/2000/svg"
   xmlns="http://www.w3.org/2000/svg"
   xmlns:sodipodi="http://sodipodi.sourceforge.net/DTD/sodipodi-0.dtd"
   xmlns:inkscape="http://www.inkscape.org/namespaces/inkscape"
   clip-rule="evenodd"
   fill-rule="evenodd"
   stroke-linejoin="round"
   stroke-miterlimit="1.4142"
   version="1.1"
   viewBox="0 0 1344 1344"
   xml:space="preserve"
   id="svg1008"
   sodipodi:docname="foreground.svg"
   inkscape:version="1.0.2 (e86c870879, 2021-01-15)"
   inkscape:export-filename="/home/svidenov/repos/github/yaga/assets/icon/foreground.png"
   inkscape:export-xdpi="96"
   inkscape:export-ydpi="96"><metadata
   id="metadata1012"><rdf:RDF><cc:Work
       rdf:about=""><dc:format>image/svg+xml</dc:format><dc:type
         rdf:resource="http://purl.org/dc/dcmitype/StillImage" /><dc:title /></cc:Work></rdf:RDF></metadata><sodipodi:namedview
   pagecolor="#ffffff"
   bordercolor="#666666"
   borderopacity="1"
   objecttolerance="10"
   gridtolerance="10"
   guidetolerance="10"
   inkscape:pageopacity="0"
   inkscape:pageshadow="2"
   inkscape:window-width="1920"
   inkscape:window-height="1135"
   id="namedview1010"
   showgrid="false"
   inkscape:zoom="0.48660714"
   inkscape:cx="434.07768"
   inkscape:cy="684.87684"
   inkscape:window-x="1920"
   inkscape:window-y="0"
   inkscape:window-maximized="1"
   inkscape:current-layer="svg1008"
   inkscape:document-rotation="0" /><defs
   id="defs1004"><linearGradient
     id="a"
     x1="18.23"
     x2="150"
     y1="150"
     y2="-7.6294e-6"
     gradientTransform="matrix(8.96 0 0 8.96 -7.8457e-5 .00019795)"
     gradientUnits="userSpaceOnUse"><stop
       stop-color="#0082c9"
       offset="0"
       id="stop999" /><stop
       stop-color="#1cafff"
       offset="1"
       id="stop1001" /></linearGradient></defs>
<rect
   y="0.00012207"
   width="1344"
   height="1344"
   fill="url(#a)"
   fill-rule="evenodd"
   id="rect1006"
   x="0"
   ry="0"
   style="fill:none" /><path
   fill="#ffffff"
   d="m 432.37716,456 c -7.10997,1.37698 -12.50274,8.40235 -12.37494,15.74992 v 400.49834 c 0,8.28001 7.63196,15.76794 15.74993,15.76794 H 908.25009 C 916.3698,888.01605 923.9996,880.51164 924,872.26624 V 477.95989 C 923.982,465.84415 914.478,455.9478 905.44211,456.018 Z m 23.6231,35.99805 431.99811,1.8e-4 V 671.99746 L 851.9985,635.99763 743.99901,779.99697 635.99948,671.99746 492.00011,815.99685 h -35.99985 z m 90.00322,35.99983 c -29.82408,0 -53.99977,24.17571 -53.99977,53.99979 0,29.82407 24.17569,53.99976 53.99977,53.99976 29.82405,0 53.99978,-24.17569 53.99978,-53.99976 0,-29.82408 -24.17573,-53.99979 -53.99978,-53.99979 z"
   id="path1022"
   style="stroke-width:18" /></svg>
