<?xml version="1.0" encoding="UTF-8" standalone="no"?>
<svg
   xmlns:dc="http://purl.org/dc/elements/1.1/"
   xmlns:cc="http://creativecommons.org/ns#"
   xmlns:rdf="http://www.w3.org/1999/02/22-rdf-syntax-ns#"
   xmlns:svg="http://www.w3.org/2000/svg"
   xmlns="http://www.w3.org/2000/svg"
   xmlns:sodipodi="http://sodipodi.sourceforge.net/DTD/sodipodi-0.dtd"
   xmlns:inkscape="http://www.inkscape.org/namespaces/inkscape"
   clip-rule="evenodd"
   fill-rule="evenodd"
   stroke-linejoin="round"
   stroke-miterlimit="1.4142"
   version="1.1"
   viewBox="0 0 1344 1344"
   xml:space="preserve"
   id="svg1008"
   sodipodi:docname="Foreground.svg"
   inkscape:version="1.0.2 (e86c870879, 2021-01-15)"><metadata
   id="metadata1012"><rdf:RDF><cc:Work
       rdf:about=""><dc:format>image/svg+xml</dc:format><dc:type
         rdf:resource="http://purl.org/dc/dcmitype/StillImage" /><dc:title></dc:title></cc:Work></rdf:RDF></metadata><sodipodi:namedview
   pagecolor="#ffffff"
   bordercolor="#666666"
   borderopacity="1"
   objecttolerance="10"
   gridtolerance="10"
   guidetolerance="10"
   inkscape:pageopacity="0"
   inkscape:pageshadow="2"
   inkscape:window-width="2560"
   inkscape:window-height="1016"
   id="namedview1010"
   showgrid="false"
   inkscape:zoom="0.48660714"
   inkscape:cx="434.07768"
   inkscape:cy="684.87684"
   inkscape:window-x="0"
   inkscape:window-y="0"
   inkscape:window-maximized="1"
   inkscape:current-layer="svg1008"
   inkscape:document-rotation="0" /><defs
   id="defs1004"><linearGradient
     id="a"
     x1="18.23"
     x2="150"
     y1="150"
     y2="-7.6294e-6"
     gradientTransform="matrix(8.96 0 0 8.96 -7.8457e-5 .00019795)"
     gradientUnits="userSpaceOnUse"><stop
       stop-color="#0082c9"
       offset="0"
       id="stop999" /><stop
       stop-color="#1cafff"
       offset="1"
       id="stop1001" /></linearGradient></defs>
<rect
   y="0.00012207"
   width="1344"
   height="1344"
   fill="url(#a)"
   fill-rule="evenodd"
   id="rect1006"
   x="0"
   ry="0"
   style="fill:none" /><path
   fill="#ffffff"
   d="m 196.55788,243.4125 c -14.10709,2.73213 -24.80703,16.67136 -24.55347,31.24987 v 794.63953 c 0,16.4286 15.14279,31.2856 31.24987,31.2856 h 937.49592 c 16.1106,-3e-4 31.2491,-14.89 31.2498,-31.2499 V 286.98374 c -0.036,-24.03917 -18.8927,-43.67481 -36.8212,-43.53551 z m 46.87122,71.42471 857.1391,3.5e-4 V 671.97891 L 1029.1399,600.55065 814.85521,886.26365 600.57041,671.97891 314.85737,957.69197 H 243.4291 Z m 178.5778,71.42826 c -59.17475,0 -107.14239,47.96765 -107.14239,107.14242 0,59.17473 47.96764,107.14239 107.14239,107.14239 59.17473,0 107.14241,-47.96766 107.14241,-107.14239 0,-59.17477 -47.96768,-107.14242 -107.14241,-107.14242 z"
   id="path1022"
   style="stroke-width:35.7141" /></svg>
