<?xml version="1.0" encoding="UTF-8" standalone="no"?>
<svg
   xmlns:dc="http://purl.org/dc/elements/1.1/"
   xmlns:cc="http://creativecommons.org/ns#"
   xmlns:rdf="http://www.w3.org/1999/02/22-rdf-syntax-ns#"
   xmlns:svg="http://www.w3.org/2000/svg"
   xmlns="http://www.w3.org/2000/svg"
   xmlns:sodipodi="http://sodipodi.sourceforge.net/DTD/sodipodi-0.dtd"
   xmlns:inkscape="http://www.inkscape.org/namespaces/inkscape"
   clip-rule="evenodd"
   fill-rule="evenodd"
   stroke-linejoin="round"
   stroke-miterlimit="1.4142"
   version="1.1"
   viewBox="0 0 1344 1344"
   xml:space="preserve"
   id="svg1008"
   sodipodi:docname="icon-original(2).svg"
   inkscape:version="1.0.2 (e86c870879, 2021-01-15)"><metadata
   id="metadata1012"><rdf:RDF><cc:Work
       rdf:about=""><dc:format>image/svg+xml</dc:format><dc:type
         rdf:resource="http://purl.org/dc/dcmitype/StillImage" /><dc:title></dc:title></cc:Work></rdf:RDF></metadata><sodipodi:namedview
   pagecolor="#ffffff"
   bordercolor="#666666"
   borderopacity="1"
   objecttolerance="10"
   gridtolerance="10"
   guidetolerance="10"
   inkscape:pageopacity="0"
   inkscape:pageshadow="2"
   inkscape:window-width="2560"
   inkscape:window-height="1016"
   id="namedview1010"
   showgrid="false"
   inkscape:zoom="0.48660714"
   inkscape:cx="609.54115"
   inkscape:cy="726.0693"
   inkscape:window-x="0"
   inkscape:window-y="0"
   inkscape:window-maximized="1"
   inkscape:current-layer="svg1008"
   inkscape:document-rotation="0" /><defs
   id="defs1004"><linearGradient
     id="a"
     x1="18.23"
     x2="150"
     y1="150"
     y2="-7.6294e-6"
     gradientTransform="matrix(8.96 0 0 8.96 -7.8457e-5 .00019795)"
     gradientUnits="userSpaceOnUse"><stop
       stop-color="#0082c9"
       offset="0"
       id="stop999" /><stop
       stop-color="#1cafff"
       offset="1"
       id="stop1001" /></linearGradient></defs>
<rect
   y="0.00012207"
   width="1344"
   height="1344"
   fill="url(#a)"
   fill-rule="evenodd"
   id="rect1006"
   x="0"
   ry="188.85651" /><g
   id="XMLID_2_"
   transform="matrix(1.8554687,0,0,1.8554687,197,197)"
   style="fill:#ffffff">
	<path
   id="XMLID_6_"
   style="fill:#ffffff;stroke-width:1.85547"
   d="M 302.39062 197 C 243.57227 197 197 243.57227 197 302.39062 L 197 1041.6094 C 197 1100.4277 243.57227 1147 302.39062 1147 L 1041.6094 1147 C 1100.4277 1147 1147 1100.4277 1147 1041.6094 L 1147 302.39062 C 1147 243.57227 1100.4277 197 1041.6094 197 L 302.39062 197 z M 672.38086 350 C 723.8241 350 767.52754 384.60497 781.49023 431.67188 C 793.54134 406.99532 818.86565 389.79883 847.98047 389.79883 C 888.59714 389.79883 922 423.18798 922 463.80469 C 922 504.42135 888.59714 537.82422 847.98047 537.82422 C 818.86565 537.82422 793.54134 520.61649 781.49023 495.93555 C 767.52754 543.00609 723.8241 577.62305 672.38086 577.62305 C 620.55436 577.62305 576.62819 542.47664 563.01367 494.86914 C 551.18124 520.12339 525.53824 537.82422 496.00391 537.82422 C 455.38723 537.82422 422 504.42135 422 463.80469 C 422 423.18798 455.38723 389.79883 496.00391 389.79883 C 525.53824 389.79883 551.18124 407.48842 563.01367 432.73828 C 576.62819 385.13433 620.55436 350 672.38086 350 z M 672.38086 393.44336 C 633.25792 393.44336 602.01953 424.68163 602.01953 463.80469 C 602.01953 502.92774 633.25792 534.18164 672.38086 534.18164 C 711.50401 534.18164 742.75781 502.92774 742.75781 463.80469 C 742.75781 424.68163 711.50401 393.44336 672.38086 393.44336 z M 496.00391 433.24219 C 478.86315 433.24219 465.44336 446.66392 465.44336 463.80469 C 465.44336 480.94541 478.86315 494.38086 496.00391 494.38086 C 513.14457 494.38086 526.58203 480.94541 526.58203 463.80469 C 526.58203 446.66392 513.14457 433.24219 496.00391 433.24219 z M 847.98047 433.24219 C 830.83989 433.24219 817.41797 446.66392 817.41797 463.80469 C 817.41797 480.94541 830.8398 494.38086 847.98047 494.38086 C 865.12118 494.38086 878.55664 480.94541 878.55664 463.80469 C 878.55664 446.66392 865.12127 433.24219 847.98047 433.24219 z M 803.18164 672 L 1039.7539 988.17188 L 302.39062 988.17188 L 487.19531 751.41406 L 618.37695 910.24219 L 803.18164 672 z "
   transform="matrix(0.53894738,0,0,0.53894738,-106.17263,-106.17263)" />
</g><g
   id="g913"
   transform="matrix(4.3901233,0,0,4.390127,357.1159,295.35582)"><g
     id="g4571"
     transform="matrix(0.47038519,0,0,0.47038519,21.389201,50.75959)"
     style="opacity:1;fill:#0082c9;fill-opacity:1" /></g><g
   inkscape:groupmode="layer"
   id="layer1"
   inkscape:label="Layer 2" /></svg>
