<?xml version="1.0" encoding="UTF-8" standalone="no"?>
<svg
   xmlns:dc="http://purl.org/dc/elements/1.1/"
   xmlns:cc="http://creativecommons.org/ns#"
   xmlns:rdf="http://www.w3.org/1999/02/22-rdf-syntax-ns#"
   xmlns:svg="http://www.w3.org/2000/svg"
   xmlns="http://www.w3.org/2000/svg"
   xmlns:sodipodi="http://sodipodi.sourceforge.net/DTD/sodipodi-0.dtd"
   xmlns:inkscape="http://www.inkscape.org/namespaces/inkscape"
   clip-rule="evenodd"
   fill-rule="evenodd"
   stroke-linejoin="round"
   stroke-miterlimit="1.4142"
   version="1.1"
   viewBox="0 0 1344 1344"
   xml:space="preserve"
   id="svg1008"
   sodipodi:docname="icon(2).svg"
   inkscape:version="1.0.2 (e86c870879, 2021-01-15)"><metadata
   id="metadata1012"><rdf:RDF><cc:Work
       rdf:about=""><dc:format>image/svg+xml</dc:format><dc:type
         rdf:resource="http://purl.org/dc/dcmitype/StillImage" /><dc:title></dc:title></cc:Work></rdf:RDF></metadata><sodipodi:namedview
   pagecolor="#ffffff"
   bordercolor="#666666"
   borderopacity="1"
   objecttolerance="10"
   gridtolerance="10"
   guidetolerance="10"
   inkscape:pageopacity="0"
   inkscape:pageshadow="2"
   inkscape:window-width="2560"
   inkscape:window-height="1016"
   id="namedview1010"
   showgrid="false"
   inkscape:zoom="0.34408321"
   inkscape:cx="22.202829"
   inkscape:cy="517.69928"
   inkscape:window-x="0"
   inkscape:window-y="0"
   inkscape:window-maximized="1"
   inkscape:current-layer="svg1008"
   inkscape:document-rotation="0" /><defs
   id="defs1004"><linearGradient
     id="a"
     x1="18.23"
     x2="150"
     y1="150"
     y2="-7.6294e-6"
     gradientTransform="matrix(8.96 0 0 8.96 -7.8457e-5 .00019795)"
     gradientUnits="userSpaceOnUse"><stop
       stop-color="#0082c9"
       offset="0"
       id="stop999" /><stop
       stop-color="#1cafff"
       offset="1"
       id="stop1001" /></linearGradient></defs>
<rect
   y="0.00012207"
   width="1344"
   height="1344"
   fill="url(#a)"
   fill-rule="evenodd"
   id="rect1006"
   x="0"
   ry="188.85651" /><path
   style="color:#000000;font-style:normal;font-variant:normal;font-weight:normal;font-stretch:normal;font-size:medium;line-height:normal;font-family:sans-serif;text-indent:0;text-align:start;text-decoration:none;text-decoration-line:none;text-decoration-style:solid;text-decoration-color:#000000;letter-spacing:normal;word-spacing:normal;text-transform:none;writing-mode:lr-tb;direction:ltr;baseline-shift:baseline;text-anchor:start;white-space:normal;clip-rule:nonzero;display:inline;overflow:visible;visibility:visible;isolation:auto;mix-blend-mode:normal;color-interpolation:sRGB;color-interpolation-filters:linearRGB;solid-color:#000000;solid-opacity:1;fill:#ffffff;fill-opacity:1;fill-rule:nonzero;stroke:none;stroke-width:17.4243;stroke-linecap:butt;stroke-linejoin:miter;stroke-miterlimit:10;stroke-dasharray:none;stroke-dashoffset:0;stroke-opacity:1;color-rendering:auto;image-rendering:auto;shape-rendering:auto;text-rendering:auto;enable-background:accumulate"
   d="m 458.47549,381.61339 c -35.09308,9.58445 -58.46745,42.35332 -59.05566,78.2627 -12.5898,-15.52322 -33.15933,-23.18963 -53.15781,-17.72777 -27.50261,7.51139 -44.05731,37.1058 -36.69351,65.59624 7.36376,28.49041 36.02763,45.74645 63.53025,38.23508 19.99848,-5.46186 34.15181,-22.61971 37.58527,-42.52245 17.84997,30.87633 53.96636,47.40621 89.05943,37.82178 34.83359,-9.51354 58.15027,-41.87738 59.07092,-77.477 12.63477,15.08373 32.90185,22.4701 52.61624,17.0858 27.50262,-7.51138 44.06485,-37.1193 36.70107,-65.60969 -7.36376,-28.49044 -36.03518,-45.73298 -63.53779,-38.22161 -19.7144,5.38428 -33.74431,22.12953 -37.43061,41.66747 -17.9877,-30.43275 -53.85422,-46.62409 -88.6878,-37.11055 z m 7.87609,30.47258 c 26.49133,-7.23518 53.31759,8.89716 60.41055,36.33986 7.09299,27.44274 -8.40344,55.1454 -34.89476,62.38058 -26.49116,7.23511 -53.3099,-8.91069 -60.40289,-36.35343 -7.09297,-27.4427 8.39594,-55.13191 34.8871,-62.36701 z M 354.1381,472.62093 c 11.60641,-3.16985 23.13806,3.75964 26.24568,15.78295 3.10757,12.0233 -3.5547,23.93328 -15.16111,27.10319 -11.60646,3.16988 -23.1305,-3.77317 -26.23812,-15.79646 -3.10761,-12.02332 3.54711,-23.91978 15.15355,-27.08968 z m 238.33189,-65.09187 c 11.60647,-3.1699 23.13804,3.75963 26.24566,15.78294 3.10757,12.02331 -3.55468,23.93332 -15.16112,27.10319 -11.60639,3.16988 -23.13047,-3.77319 -26.23805,-15.79647 -3.10762,-12.02332 3.54718,-23.91981 15.15351,-27.08966 z"
   id="XMLID_107_"
   inkscape:connector-curvature="0" /><g
   id="g2306"
   transform="translate(170.2008,162.64727)"
   style="fill:#ffffff"><path
     id="path2302"
     style="fill:#ffffff"
     d="M 805.91992 372.27344 L 827.91992 454.37305 L 1093.1016 607.44727 C 1099.7016 611.24727 1102.0012 619.74766 1098.2012 626.34766 L 939.80078 900.74805 L 867.59766 859.13672 C 863.77887 860.84271 859.78098 862.27729 855.60742 863.38672 L 582.74805 936.50586 L 823.10156 1075.248 C 834.70156 1082.048 847.5 1085.1465 860 1085.1465 C 885.6 1085.1465 910.50156 1071.8465 924.10156 1048.1465 L 1150.2012 656.44727 C 1170.7012 621.04727 1158.6012 575.84766 1123.2012 555.34766 L 805.91992 372.27344 z "
     transform="translate(-170.2008,-162.64727)" /><path
     d="M 674.5,569.3 557.4,132.3 C 548.5,99.3 518.7,77.5 486,77.5 v 0 c -6.4,0 -12.8,0.8 -19.2,2.5 L 64.9,187.7 C 25.4,198.3 2,238.9 12.5,278.3 l 117.1,436.9 c 8.9,33.1 38.7,54.8 71.4,54.8 6.4,0 12.8,-0.8 19.2,-2.5 L 622.1,659.8 c 39.5,-10.5 62.9,-51.1 52.4,-90.5 z m -521.9,-0.5 -82,-306 c -1.2,-4.6 0.1,-8.3 1.4,-10.5 1.3,-2.3 3.8,-5.2 8.4,-6.5 L 482.3,138.1 c 1.2,-0.3 2.4,-0.5 3.6,-0.5 5.1,0 11.5,3.2 13.3,10.3 l 82,306.1 z"
     id="path2304"
     style="fill:#ffffff" /><path
     d="M 674.5,569.3 557.4,132.3 C 548.5,99.3 518.7,77.5 486,77.5 v 0 c -6.4,0 -12.8,0.8 -19.2,2.5 L 64.9,187.7 C 25.4,198.3 2,238.9 12.5,278.3 l 117.1,436.9 c 8.9,33.1 38.7,54.8 71.4,54.8 6.4,0 12.8,-0.8 19.2,-2.5 L 622.1,659.8 c 39.5,-10.5 62.9,-51.1 52.4,-90.5 z m -521.9,-0.5 -82,-306 c -1.2,-4.6 0.1,-8.3 1.4,-10.5 1.3,-2.3 3.8,-5.2 8.4,-6.5 L 482.3,138.1 c 1.2,-0.3 2.4,-0.5 3.6,-0.5 5.1,0 11.5,3.2 13.3,10.3 l 82,306.1 z"
     id="path2399"
     style="fill:#ffffff" /></g><g
   id="g4571"
   transform="matrix(1.5609211,-0.41844844,0.44541919,1.6615291,337.18065,547.16134)"
   style="fill:#ffffff;fill-opacity:1"><path
     id="XMLID_121_"
     d="m 37.669669,48.9 c 5.9,0 9.2,4.2 9.2,10.5 0,0.6 -0.5,1.1 -1.1,1.1 h -15.9 c 0.1,5.6 4,8.8 8.5,8.8 2.8,0 4.8,-1.2 5.8,-2 0.6,-0.4 1.1,-0.3 1.4,0.3 l 0.3,0.5 c 0.3,0.5 0.2,1 -0.3,1.4 -1.2,0.9 -3.8,2.4 -7.3,2.4 -6.5,0 -11.5,-4.7 -11.5,-11.5 0.1,-7.2 4.9,-11.5 10.9,-11.5 z m 6.1,9.4 c -0.2,-4.6 -3,-6.9 -6.2,-6.9 -3.7,0 -6.9,2.4 -7.6,6.9 z"
     inkscape:connector-curvature="0"
     style="fill:#ffffff;fill-opacity:1" /><path
     id="XMLID_119_"
     d="m 76.9,52.1 v -2.5 -5.2 c 0,-0.7 0.4,-1.1 1.1,-1.1 h 0.8 c 0.7,0 1,0.4 1,1.1 v 5.2 h 4.5 c 0.7,0 1.1,0.4 1.1,1.1 V 51 c 0,0.7 -0.4,1 -1.1,1 h -4.5 v 11 c 0,5.1 3.1,5.7 4.8,5.8 0.9,0.1 1.2,0.3 1.2,1.1 v 0.6 c 0,0.7 -0.3,1 -1.2,1 -4.8,0 -7.7,-2.9 -7.7,-8.1 z"
     inkscape:connector-curvature="0"
     style="fill:#ffffff;fill-opacity:1" /><path
     id="XMLID_117_"
     d="m 99.8,48.9 c 3.8,0 6.2,1.6 7.3,2.5 0.5,0.4 0.6,0.9 0.1,1.5 l -0.3,0.5 c -0.4,0.6 -0.9,0.6 -1.5,0.2 -1,-0.7 -2.9,-2 -5.5,-2 -4.8,0 -8.6,3.6 -8.6,8.9 0,5.2 3.8,8.8 8.6,8.8 3.1,0 5.2,-1.4 6.2,-2.3 0.6,-0.4 1,-0.3 1.4,0.3 l 0.3,0.4 c 0.3,0.6 0.2,1 -0.3,1.5 -1.1,0.9 -3.8,2.8 -7.8,2.8 -6.5,0 -11.5,-4.7 -11.5,-11.5 0.1,-6.8 5.1,-11.6 11.6,-11.6 z"
     inkscape:connector-curvature="0"
     style="fill:#ffffff;fill-opacity:1" /><path
     id="XMLID_115_"
     d="m 113.1,41.8 c 0,-0.7 -0.4,-1.1 0.3,-1.1 h 0.8 c 0.7,0 1.8,0.4 1.8,1.1 v 23.9 c 0,2.8 1.3,3.1 2.3,3.2 0.5,0 0.9,0.3 0.9,1 v 0.7 c 0,0.7 -0.3,1.1 -1.1,1.1 -1.8,0 -5,-0.6 -5,-5.4 z"
     inkscape:connector-curvature="0"
     style="fill:#ffffff;fill-opacity:1" /><path
     id="XMLID_112_"
     d="m 133.6,48.9 c 6.4,0 11.6,4.9 11.6,11.4 0,6.6 -5.2,11.6 -11.6,11.6 -6.4,0 -11.6,-5 -11.6,-11.6 0,-6.5 5.2,-11.4 11.6,-11.4 z m 0,20.4 c 4.7,0 8.5,-3.8 8.5,-9 0,-5 -3.8,-8.7 -8.5,-8.7 -4.7,0 -8.6,3.8 -8.6,8.7 0.1,5.1 3.9,9 8.6,9 z"
     inkscape:connector-curvature="0"
     style="fill:#ffffff;fill-opacity:1" /><path
     id="XMLID_109_"
     d="m 183.5,48.9 c 5.3,0 7.2,4.4 7.2,4.4 h 0.1 c 0,0 -0.1,-0.7 -0.1,-1.7 v -9.9 c 0,-0.7 -0.3,-1.1 0.4,-1.1 h 0.8 c 0.7,0 1.8,0.4 1.8,1.1 v 28.5 c 0,0.7 -0.3,1.1 -1,1.1 H 192 c -0.7,0 -1.1,-0.3 -1.1,-1 v -1.7 c 0,-0.8 0.2,-1.4 0.2,-1.4 H 191 c 0,0 -1.9,4.6 -7.6,4.6 -5.9,0 -9.6,-4.7 -9.6,-11.5 -0.2,-6.8 3.9,-11.4 9.7,-11.4 z m 0.1,20.4 c 3.7,0 7.1,-2.6 7.1,-8.9 0,-4.5 -2.3,-8.8 -7,-8.8 -3.9,0 -7.1,3.2 -7.1,8.8 0.1,5.4 2.9,8.9 7,8.9 z"
     inkscape:connector-curvature="0"
     style="fill:#ffffff;fill-opacity:1" /><path
     sodipodi:nodetypes="ssssssssssscccccsss"
     style="fill:#ffffff;fill-opacity:1"
     inkscape:connector-curvature="0"
     d="m 1,71.4 h 0.8 c 0.7,0 1.1,-0.4 1.1,-1.1 V 48.827665 C 2.9,45.427665 6.6,43 10.8,43 c 4.2,0 7.9,2.427665 7.9,5.827665 L 18.7,70.3 c 0,0.7 0.4,1.1 1.1,1.1 h 0.8 c 0.7,0 1,-0.4 1,-1.1 V 48.7 c 0,-5.7 -5.7,-8.5 -10.9,-8.5 v 0 0 0 0 C 5.7,40.2 0,43 0,48.7 v 21.6 c 0,0.7 0.3,1.1 1,1.1 z"
     id="XMLID_103_" /><path
     style="fill:#ffffff;fill-opacity:1"
     inkscape:connector-curvature="0"
     d="m 167.9,49.4 h -0.8 c -0.7,0 -1.1,0.4 -1.1,1.1 v 12.1 c 0,3.4 -2.2,6.5 -6.5,6.5 -4.2,0 -6.5,-3.1 -6.5,-6.5 V 50.5 c 0,-0.7 -0.4,-1.1 -1.1,-1.1 h -0.8 c -0.7,0 -1,0.4 -1,1.1 v 12.9 c 0,5.7 4.2,8.5 9.4,8.5 v 0 c 0,0 0,0 0,0 0,0 0,0 0,0 v 0 c 5.2,0 9.4,-2.8 9.4,-8.5 V 50.5 c 0.1,-0.7 -0.3,-1.1 -1,-1.1 z"
     id="XMLID_102_" /><path
     inkscape:connector-curvature="0"
     id="path4165-9"
     d="m 68.908203,49.235938 c -0.244942,0.0391 -0.480102,0.202589 -0.705078,0.470703 l -4.046875,4.824218 -3.029297,3.609375 -4.585937,-5.466796 -2.488282,-2.966797 c -0.224975,-0.268116 -0.479748,-0.414718 -0.74414,-0.4375 -0.264393,-0.02278 -0.538524,0.07775 -0.806641,0.302734 l -0.613281,0.513672 c -0.536232,0.449952 -0.508545,0.948144 -0.05859,1.484375 l 4.048828,4.824219 3.357422,4 -4.916016,5.857421 c -0.0037,0.0044 -0.0061,0.0093 -0.0098,0.01367 l -2.480469,2.955078 c -0.449952,0.536232 -0.399531,1.100832 0.136719,1.550782 l 0.613281,0.511718 c 0.536231,0.449951 1.022704,0.33701 1.472656,-0.199218 l 4.046875,-4.824219 3.029297,-3.609375 4.585938,5.466797 c 0.003,0.0036 0.0067,0.0062 0.0098,0.0098 l 2.480469,2.957032 c 0.44995,0.536231 1.012595,0.584735 1.548828,0.134765 l 0.613282,-0.513671 c 0.536231,-0.449952 0.508544,-0.948144 0.05859,-1.484376 l -4.048828,-4.824218 -3.357422,-4 4.916016,-5.857422 c 0.0037,-0.0044 0.0061,-0.0093 0.0098,-0.01367 l 2.480469,-2.955078 c 0.449952,-0.53623 0.399532,-1.10083 -0.136719,-1.550781 l -0.613281,-0.513672 c -0.268115,-0.224976 -0.522636,-0.308636 -0.767578,-0.269531 z"
     style="fill:#ffffff;fill-opacity:1" /></g><path
   id="path2366"
   style="fill:#ffffff;fill-opacity:1;stroke:none;stroke-width:0.768402px;stroke-linecap:butt;stroke-linejoin:miter;stroke-opacity:1"
   d="m 873.30273,587.71289 -8.6875,3.59766 17.06641,63.69336 z M 1050.916,764.1543 909.11719,815.04492 c -8.2503,21.71436 -25.90542,39.52571 -49.42774,47.13672 l 124.70703,74.05274 72.51952,-125.0586 z"
   sodipodi:nodetypes="cccccccccc" /><g
   id="g2407"
   transform="matrix(1.0686486,0,0,1.0686486,190.80116,158.29197)"
   style="fill:#ff0000" /><path
   d="m 988.60933,571.38649 c -4.27619,-2.387 -8.89794,-3.86324 -13.73948,-4.39474 -4.67279,-0.50968 -9.32286,-0.12014 -13.85812,1.16573 -4.53527,1.28588 -8.7055,3.40874 -12.40772,6.28134 -2.65411,2.06456 -4.9698,4.46277 -6.93774,7.14555 -1.77113,-0.55444 -3.59936,-0.94174 -5.45713,-1.14651 -3.68024,-0.40793 -7.365,-0.0947 -10.95452,0.92304 -3.58952,1.01773 -6.87657,2.6928 -9.80882,4.96394 -3.04295,2.37218 -5.52996,5.2718 -7.41646,8.65137 -1.8865,3.37957 -3.05697,7.03218 -3.47132,10.85357 -0.40793,3.68023 -0.0947,7.365 0.92303,10.95452 1.01773,3.58952 2.69279,6.87656 4.96393,9.80882 2.13193,2.7279 4.70049,5.03012 7.65981,6.82677 -0.69465,2.0547 -1.17307,4.17584 -1.40609,6.34349 -0.42975,3.84898 -0.0954,7.69034 0.96502,11.43032 1.06039,3.73997 2.8057,7.19287 5.17793,10.23575 2.46552,3.16743 5.50147,5.76675 9.03277,7.73795 3.04851,1.70169 6.33444,2.84842 9.76731,3.40779 3.31326,0.54676 6.67365,0.52292 9.98918,-0.0688 2.31013,-0.41116 4.56095,-1.07258 6.7033,-1.99347 0.19409,0.39776 0.40194,0.8033 0.61748,1.19503 2.42762,4.46699 6.06438,8.16155 10.53369,10.65635 3.17266,1.771 6.59525,2.86735 10.19114,3.26438 3.46237,0.37679 6.92001,0.0815 10.28696,-0.86148 3.35304,-0.95071 6.45881,-2.52796 9.20819,-4.66597 0.44725,-0.34739 0.88073,-0.70249 1.30793,-1.07912 1.1674,0.92301 2.4102,1.74338 3.7206,2.47488 3.3796,1.88652 7.0322,3.05697 10.8536,3.47132 3.6802,0.40793 7.365,0.0947 10.9545,-0.92303 3.5895,-1.01774 6.8766,-2.69281 9.8088,-4.96395 3.0353,-2.35838 5.53,-5.27179 7.4165,-8.65136 1.8865,-3.37956 3.057,-7.03218 3.4713,-10.85357 0.4079,-3.68024 0.095,-7.365 -0.923,-10.95452 -1.0177,-3.58951 -2.6928,-6.87657 -4.964,-9.80882 -1.0223,-1.31246 -2.1415,-2.51619 -3.3576,-3.61112 0.3606,-1.55366 0.617,-3.14739 0.74,-4.76134 0.2963,-3.86917 -0.1224,-7.72141 -1.2688,-11.43701 -1.1387,-3.72941 -2.9485,-7.16405 -5.3774,-10.20246 -2.5086,-3.15526 -5.5798,-5.75614 -9.1249,-7.73506 -2.083,-1.1627 -4.283,-2.0832 -6.5587,-2.7384 -2.2129,-0.63818 -4.5153,-1.01878 -6.8151,-1.14465 -0.7687,-0.0491 -1.5466,-0.0492 -2.3185,-0.0277 -0.5775,-3.47048 -1.6479,-6.83608 -3.2004,-10.01853 -3.261,-6.66903 -8.41633,-12.1159 -14.92717,-15.75029 z"
   id="path2411"
   style="fill:#ffffff;fill-opacity:1;stroke-width:0.157977"
   sodipodi:nodetypes="scscccscscscccscsccccsccccscscscccccccsccccss" /></svg>
